<svg width="78" height="88" viewBox="0 0 78 88" fill="none" xmlns="http://www.w3.org/2000/svg">
<path fill-rule="evenodd" clip-rule="evenodd" d="M71.8605 42.506L71.4137 8.64919C71.399 7.53281 70.731 6.53286 69.6826 6.14877C57.2123 1.5799 29.1155 -3.85892 2.24287 6.11996C1.16345 6.5208 0.465519 7.56767 0.480712 8.71901L1.01324 49.0759C0.87485 52.2584 2.23775 59.5982 8.29324 65.985C9.92872 67.7074 11.9165 68.997 13.9545 70.1599L35.6411 82.5495C36.5308 83.0578 37.628 83.0353 38.4961 82.4909L48.3669 76.3007C48.0315 75.7149 47.6278 75.5138 47.6278 75.5138C46.9277 75.2916 43.846 73.8785 41.5414 72.4141L37.5809 74.9049C37.143 75.1803 36.5884 75.1896 36.1415 74.9291L14.1524 62.1126C14.0713 62.0654 13.9974 62.0123 13.9281 61.949C11.259 59.5127 6.28516 53.1728 6.94756 46.4963L7.40279 12.9524C7.40918 12.4815 7.64481 12.0453 8.06223 11.827C13.3752 9.04966 30.0338 5.40388 47.8855 8.23635C48.6381 8.35576 48.8247 9.33582 48.1762 9.73594L17.7684 28.4981C17.3583 28.7511 17.1085 29.1987 17.1085 29.6806V51.537C17.1085 52.025 17.3646 52.4773 17.783 52.7284L35.4982 63.3604C35.5713 63.4042 35.6473 63.4408 35.7254 63.4701C35.6296 61.264 35.7031 58.8707 36.0041 57.2694C36.0479 57.0365 36.0923 56.7985 36.1373 56.5566C36.2108 56.1617 36.2863 55.7565 36.3644 55.3465L24.1726 48.6284C23.9095 48.4834 23.7448 48.2081 23.7413 47.9078L23.5678 32.7389C23.5645 32.4438 23.7173 32.169 23.9696 32.0162L48.2141 17.3353C48.6038 17.0993 48.7319 16.5943 48.5018 16.2011L48.3187 15.8881C48.0845 15.4879 48.2218 14.9735 48.6244 14.7433L51.9118 12.8636C52.3167 12.6321 52.8327 12.7777 53.0568 13.1867L54.8742 16.5037C55.0885 16.8948 54.9571 17.3852 54.576 17.6168L51.4349 19.5256C51.0706 19.747 50.5964 19.6413 50.3607 19.2861C50.1271 18.9343 49.659 18.8267 49.2953 19.0414L39.131 25.0396C38.5859 25.3612 38.584 26.1491 39.1275 26.4735L48.3911 32.0018C48.6597 32.162 48.9953 32.1585 49.2604 31.9927L57.026 27.1363C57.3973 26.9041 57.5257 26.4242 57.3199 26.0377L56.7632 24.9921C56.7583 24.9829 56.7469 24.9793 56.7376 24.9842L60.3497 22.66C60.7629 22.3942 61.3151 22.5414 61.5411 22.9776L63.2788 26.332C63.4801 26.7204 63.3469 27.1982 62.9738 27.4266L60.0386 29.2229C59.6548 29.4578 59.1539 29.3458 58.9068 28.9699L58.7739 28.7679C58.5253 28.3897 58.0204 28.279 57.6364 28.5183L49.6784 33.4781C49.4341 33.6304 49.2856 33.8978 49.2856 34.1856V41.3269C51.1369 40.7967 53.3206 40.3905 55.9128 40.1985C56.7031 40.14 57.4982 40.1143 58.2919 40.1169C58.287 40.1079 58.2821 40.099 58.2769 40.0902L58.0948 39.779C57.8635 39.3838 57.9943 38.8759 58.3878 38.6416L61.5142 36.7802C61.9149 36.5416 62.4334 36.6781 62.6647 37.0831L64.4498 40.2096C64.5321 40.3537 64.5668 40.5124 64.5584 40.667C67.3661 41.131 69.9126 41.8264 71.8605 42.506Z" fill="white"/>
<path fill-rule="evenodd" clip-rule="evenodd" d="M70.501 44.0002C64.001 41.6668 46.9099 38.6921 40.501 51.5002C39.4552 53.5903 39.8682 54.2241 40.2138 54.7546C40.3643 54.9855 40.5019 55.1968 40.501 55.5C38.3339 59.6667 37.4997 69.5 44.9997 71C44.4997 68.5 44.4997 68.5 44.4997 66.5C45.4998 67.1666 47.5 67.9999 49 67.9999C51.2785 79.7721 50.1989 82.6034 49.6887 83.9415C49.5271 84.3652 49.4226 84.6392 49.5 84.9999C49.7543 86.186 52.1077 84.871 54.0703 83.7743C54.5896 83.4841 55.0815 83.2092 55.5 83V88C60 87 61 84 61 84C61.0135 84.216 61.0164 84.4193 61.0192 84.6196C61.0319 85.5143 61.0437 86.3505 62 88C64.3211 86.6194 65.4257 85.4352 67 82.5C67.2997 82.7997 67.431 83.133 67.5755 83.5C67.7525 83.9495 67.9495 84.4495 68.5 85C70.5527 82.5367 70.92 80.7476 71.2625 79.0792C71.3371 78.7156 71.4105 78.3578 71.5 78C72 76 72.096 76.1289 72.298 76.8144C72.5 77.5 73 78.5 74.5 78.5C78 73 77 61.5 77 61.5C77.797 59.3681 75.7855 57.6528 74.8968 56.895C74.6551 56.6888 74.4964 56.5535 74.5 56.5C74.5 56.5 75.5 56.5 76.5 56C74.0031 51.7773 71.5 49.9329 70.501 49.5H74.5C74.5 49.5 72 46 68.5 45C70 45 70.501 44.0002 70.501 44.0002ZM52.0078 54.1294C52.0234 54.0436 53.125 52.4536 54.8008 53.0122C55.0358 53.0906 55.918 53.5708 55.918 55.2466C55.918 56.9224 51.2162 58.4834 52.0078 54.1294Z" fill="white"/>
</svg>
